<svg width="25" height="25" viewBox="0 0 25 25" fill="none" xmlns="http://www.w3.org/2000/svg">
<g id="Icon / chevron-right">
<path id="icon" fill-rule="evenodd" clip-rule="evenodd" d="M21.1914 7.26307L21.0514 7.01307C20.8708 6.71076 20.6161 6.4595 20.3114 6.28307L13.6014 2.41307C13.2976 2.23682 12.9527 2.14369 12.6014 2.14307H12.3114C11.9601 2.14369 11.6152 2.23682 11.3114 2.41307L4.60143 6.29307C4.2984 6.46833 4.04669 6.72004 3.87143 7.02307L3.73143 7.27307C3.55518 7.57691 3.46205 7.92181 3.46143 8.27307V16.0231C3.46205 16.3744 3.55518 16.7193 3.73143 17.0231L3.87143 17.2731C4.05122 17.5726 4.30192 17.8233 4.60143 18.0031L11.3214 21.8731C11.6237 22.053 11.9696 22.1464 12.3214 22.1431H12.6014C12.9527 22.1425 13.2976 22.0494 13.6014 21.8731L20.3114 17.9931C20.6174 17.8218 20.8701 17.5691 21.0414 17.2631L21.1914 17.0131C21.3655 16.7084 21.4585 16.3641 21.4614 16.0131V8.26307C21.4608 7.91181 21.3677 7.56691 21.1914 7.26307ZM12.3114 4.14307H12.6014L18.4614 7.52307L12.4614 10.9831L6.46142 7.52307L12.3114 4.14307ZM13.4614 19.6431L19.3114 16.2631L19.4614 16.0131V9.25306L13.4614 12.7231V19.6431Z" fill="black"/>
</g>
</svg>
