<svg width="25" height="25" viewBox="0 0 25 25" fill="none" xmlns="http://www.w3.org/2000/svg">
<g id="Icon / envelope">
<path id="icon" d="M20.2949 4.14307H4.29492C3.19192 4.14307 2.29492 5.04007 2.29492 6.14307V18.1431C2.29492 19.2461 3.19192 20.1431 4.29492 20.1431H20.2949C21.3979 20.1431 22.2949 19.2461 22.2949 18.1431V6.14307C22.2949 5.04007 21.3979 4.14307 20.2949 4.14307ZM20.2949 6.14307V6.65407L12.2949 12.8771L4.29492 6.65507V6.14307H20.2949ZM4.29492 18.1431V9.18707L11.6809 14.9321C11.856 15.0696 12.0723 15.1444 12.2949 15.1444C12.5176 15.1444 12.7338 15.0696 12.9089 14.9321L20.2949 9.18707L20.2969 18.1431H4.29492Z" fill="black"/>
</g>
</svg>
