<svg width="151" height="63" viewBox="0 0 151 63" fill="none" xmlns="http://www.w3.org/2000/svg">
<path d="M10.1377 30.0077C10.1377 37.4322 16.1565 43.451 23.581 43.451H36.7794V38.0451L23.5742 38.0451C23.5696 38.0451 23.5651 38.0451 23.5606 38.0451C19.131 38.0341 15.5436 34.4399 15.5436 30.0077C15.5436 25.6511 19.0098 22.1041 23.3348 21.974C23.4166 21.9716 23.4986 21.9703 23.581 21.9703C23.6372 21.9703 23.6932 21.9709 23.7491 21.972C28.0969 22.0613 31.5966 25.6029 31.6183 29.9669H37.0242C37.0022 22.5612 30.9919 16.5645 23.581 16.5645C16.1565 16.5645 10.1377 22.5832 10.1377 30.0077Z" fill="#E51B23"/>
<path d="M26.8013 28.43H35.9436C36.5404 28.43 37.0242 28.9138 37.0242 29.5106V32.9687H27.8819C27.2851 32.9687 26.8013 32.4849 26.8013 31.8881V28.43Z" fill="#133672"/>
<path d="M37.0134 29.5217L35.9436 28.4414H36.927C36.927 28.4414 36.9702 28.7544 36.981 28.8949C36.9877 28.9922 36.9973 29.1005 37.0026 29.2083C37.0058 29.2731 37.0134 29.446 37.0134 29.5217Z" fill="#133672"/>
<path d="M36.981 28.8949C36.9702 28.7544 36.927 28.4414 36.927 28.4414H35.9436L37.0134 29.5217C37.0134 29.446 37.0058 29.2731 37.0026 29.2083M36.981 28.8949C36.9877 28.9922 36.9973 29.1005 37.0026 29.2083M36.981 28.8949L37.0026 29.2083" stroke="#133672" stroke-width="0.0251276"/>
<path d="M49.7572 44H48.2155C45.8172 44 43.9952 43.3459 42.7494 42.0378C41.5347 40.7297 40.9274 38.8454 40.9274 36.3849V21.1546C40.9274 20.5006 41.2544 20.1735 41.9084 20.1735H45.8795C46.5336 20.1735 46.8606 20.5006 46.8606 21.1546V36.1046C46.8606 37.1012 47.0631 37.8176 47.468 38.2536C47.904 38.6585 48.6048 38.861 49.5703 38.861H51.2989C53.4479 38.861 54.5225 37.6774 54.5225 35.3103V21.1546C54.5225 20.5006 54.8495 20.1735 55.5036 20.1735H59.4279C60.1131 20.1735 60.4557 20.5006 60.4557 21.1546V43.0189C60.4557 43.673 60.1131 44 59.4279 44H55.5036C54.8495 44 54.5225 43.673 54.5225 43.0189V41.4772H54.3356C53.993 42.3181 53.3856 42.9566 52.5136 43.3927C51.6415 43.7976 50.7227 44 49.7572 44ZM70.5674 44H66.5963C65.9422 44 65.6152 43.673 65.6152 43.0189V21.1546C65.6152 20.5006 65.9422 20.1735 66.5963 20.1735H70.5674C71.2214 20.1735 71.5485 20.5006 71.5485 21.1546V22.6963H71.7353C72.1091 21.9488 72.732 21.3415 73.6041 20.8743C74.5073 20.4071 75.5351 20.1735 76.6875 20.1735H77.9956C80.7053 20.1735 82.6519 21.1702 83.8355 23.1635C84.8944 21.1702 86.7164 20.1735 89.3015 20.1735H90.6564C93.0546 20.1735 94.861 20.8276 96.0757 22.1357C97.3215 23.4438 97.9445 25.3281 97.9445 27.7887V43.0189C97.9445 43.673 97.6174 44 96.9634 44H92.9923C92.3382 44 92.0112 43.673 92.0112 43.0189V28.069C92.0112 27.0723 91.8088 26.3715 91.4039 25.9666C90.999 25.5306 90.2982 25.3126 89.3015 25.3126H88.1336C85.9845 25.3126 84.91 26.5117 84.91 28.9099V43.0189C84.91 43.673 84.5674 44 83.8822 44H79.9578C79.3037 44 78.9767 43.673 78.9767 43.0189V28.069C78.9767 27.0723 78.7587 26.3715 78.3227 25.9666C77.9178 25.5306 77.217 25.3126 76.2203 25.3126H74.772C72.623 25.3126 71.5485 26.4961 71.5485 28.8632V43.0189C71.5485 43.673 71.2214 44 70.5674 44ZM111.252 44H110.131C107.671 44 105.771 43.3459 104.431 42.0378C103.092 40.7297 102.423 38.8454 102.423 36.3849V27.7887C102.423 25.3281 103.092 23.4438 104.431 22.1357C105.771 20.8276 107.671 20.1735 110.131 20.1735H120.923C121.608 20.1735 121.951 20.5006 121.951 21.1546V43.0189C121.951 43.673 121.608 44 120.923 44H116.999C116.345 44 116.018 43.673 116.018 43.0189V41.4772H115.831C115.488 42.3181 114.881 42.9566 114.009 43.3927C113.137 43.7976 112.218 44 111.252 44ZM116.018 35.3103V25.8265C116.018 25.4839 115.831 25.3126 115.457 25.3126H111.065C110.069 25.3126 109.368 25.5306 108.963 25.9666C108.558 26.3715 108.356 27.0723 108.356 28.069V36.1046C108.356 37.1012 108.558 37.8176 108.963 38.2536C109.368 38.6585 110.069 38.861 111.065 38.861H112.794C114.943 38.861 116.018 37.6774 116.018 35.3103ZM127.584 25.3126H125.715C125.342 25.3126 125.077 25.2503 124.921 25.1257C124.797 25.0011 124.734 24.7519 124.734 24.3782V21.1546C124.734 20.5006 125.061 20.1735 125.715 20.1735H127.584C127.927 20.1735 128.098 20.0022 128.098 19.6596V15.2214C128.098 14.5673 128.441 14.2403 129.126 14.2403H133.05C133.704 14.2403 134.031 14.5673 134.031 15.2214V19.6596C134.031 20.0022 134.218 20.1735 134.592 20.1735H138.236C138.89 20.1735 139.217 20.5006 139.217 21.1546V24.3782C139.217 24.7208 139.139 24.97 138.983 25.1257C138.859 25.2503 138.61 25.3126 138.236 25.3126H134.592C134.218 25.3126 134.031 25.4839 134.031 25.8265V36.1513C134.031 37.1168 134.249 37.8176 134.685 38.2536C135.121 38.6585 135.838 38.861 136.834 38.861H138.703C139.357 38.861 139.684 39.188 139.684 39.842V43.0656C139.684 43.4082 139.606 43.6574 139.451 43.8131C139.326 43.9377 139.077 44 138.703 44H135.853C133.393 44 131.477 43.3459 130.107 42.0378C128.768 40.7297 128.098 38.861 128.098 36.4316V25.8265C128.098 25.4839 127.927 25.3126 127.584 25.3126Z" fill="#133672"/>
<path d="M18.8374 59.4141H13.8724C13.6598 59.4141 13.5535 59.3078 13.5535 59.0952V49.9699C13.5535 49.7573 13.6598 49.651 13.8724 49.651H18.8374C19.0399 49.651 19.1411 49.7573 19.1411 49.9699V51.0024C19.1411 51.215 19.0399 51.3212 18.8374 51.3212H15.664C15.5426 51.3212 15.4818 51.3769 15.4818 51.4883V53.4621C15.4818 53.5735 15.5426 53.6291 15.664 53.6291H18.2604C18.473 53.6291 18.5793 53.7354 18.5793 53.948V54.9805C18.5793 55.193 18.473 55.2993 18.2604 55.2993H15.664C15.5426 55.2993 15.4818 55.355 15.4818 55.4663V57.5769C15.4818 57.6882 15.5426 57.7439 15.664 57.7439H18.8374C19.0399 57.7439 19.1411 57.8502 19.1411 58.0627V59.0952C19.1411 59.3078 19.0399 59.4141 18.8374 59.4141ZM26.0422 49.651H27.3176C27.5403 49.651 27.6517 49.7523 27.6517 49.9547V56.9391C27.6517 57.7287 27.429 58.3411 26.9836 58.7764C26.5483 59.2015 25.9359 59.4141 25.1464 59.4141H23.4762C22.6765 59.4141 22.0591 59.2015 21.6238 58.7764C21.1886 58.3512 20.9709 57.7388 20.9709 56.9391V49.9699C20.9709 49.7573 21.0772 49.651 21.2898 49.651H22.5804C22.793 49.651 22.8992 49.7573 22.8992 49.9699V56.848C22.8992 57.172 22.965 57.4048 23.0966 57.5465C23.2383 57.6781 23.4661 57.7439 23.7799 57.7439H24.8275C25.1515 57.7439 25.3792 57.6781 25.5108 57.5465C25.6525 57.4048 25.7234 57.172 25.7234 56.848V49.9699C25.7234 49.7573 25.8297 49.651 26.0422 49.651ZM31.3803 59.4141H30.0897C29.8771 59.4141 29.7709 59.3078 29.7709 59.0952V49.9699C29.7709 49.7573 29.8771 49.651 30.0897 49.651H33.7034C34.4929 49.651 35.1104 49.8687 35.5558 50.3039C36.0012 50.7392 36.2239 51.3516 36.2239 52.1411V53.3255C36.2239 54.4693 35.7734 55.2285 34.8725 55.603V55.6637L36.4972 59.0497C36.5883 59.2926 36.5022 59.4141 36.239 59.4141H35.0092C34.827 59.4141 34.6954 59.3938 34.6144 59.3533C34.5334 59.3128 34.4676 59.2268 34.417 59.0952L32.8987 55.8156H31.8814C31.7599 55.8156 31.6992 55.8712 31.6992 55.9826V59.0952C31.6992 59.3078 31.5929 59.4141 31.3803 59.4141ZM31.8662 54.2668H33.3542C33.6781 54.2668 33.916 54.201 34.0678 54.0695C34.2196 53.9277 34.2956 53.7051 34.2956 53.4014V52.2171C34.2956 51.9033 34.2196 51.6755 34.0678 51.5338C33.916 51.3921 33.6781 51.3212 33.3542 51.3212H31.8662C31.7548 51.3212 31.6992 51.3769 31.6992 51.4883V54.0998C31.6992 54.2112 31.7548 54.2668 31.8662 54.2668ZM40.9592 57.7439H42.0373C42.3612 57.7439 42.5889 57.6781 42.7205 57.5465C42.8622 57.4048 42.9331 57.172 42.9331 56.848V52.2171C42.9331 51.8931 42.8622 51.6654 42.7205 51.5338C42.5889 51.3921 42.3612 51.3212 42.0373 51.3212H40.9592C40.6353 51.3212 40.4076 51.3921 40.276 51.5338C40.1444 51.6654 40.0786 51.8931 40.0786 52.2171V56.848C40.0786 57.172 40.1444 57.4048 40.276 57.5465C40.4076 57.6781 40.6353 57.7439 40.9592 57.7439ZM42.3561 59.4141H40.6556C39.8559 59.4141 39.2384 59.2015 38.8032 58.7764C38.3679 58.3512 38.1503 57.7388 38.1503 56.9391V52.126C38.1503 51.3263 38.3679 50.7139 38.8032 50.2888C39.2384 49.8636 39.8559 49.651 40.6556 49.651H42.3561C43.1558 49.651 43.7732 49.8636 44.2085 50.2888C44.6438 50.7139 44.8614 51.3263 44.8614 52.126V56.9391C44.8614 57.7388 44.6438 58.3512 44.2085 58.7764C43.7732 59.2015 43.1558 59.4141 42.3561 59.4141ZM48.517 59.4141H47.2264C47.0138 59.4141 46.9075 59.3078 46.9075 59.0952V49.9699C46.9075 49.7573 47.0138 49.651 47.2264 49.651H50.9311C51.7207 49.651 52.3331 49.8687 52.7683 50.3039C53.2036 50.7291 53.4212 51.3364 53.4212 52.126V53.5836C53.4212 54.3731 53.2036 54.9855 52.7683 55.4208C52.3331 55.8459 51.7207 56.0585 50.9311 56.0585H49.018C48.8965 56.0585 48.8358 56.1142 48.8358 56.2255V59.0952C48.8358 59.3078 48.7295 59.4141 48.517 59.4141ZM49.0028 54.3731H50.6123C50.9362 54.3731 51.1639 54.3073 51.2955 54.1757C51.4271 54.034 51.4929 53.8063 51.4929 53.4925V52.2171C51.4929 51.8931 51.4271 51.6654 51.2955 51.5338C51.1639 51.3921 50.9362 51.3212 50.6123 51.3212H49.0028C48.8915 51.3212 48.8358 51.3769 48.8358 51.4883V54.2061C48.8358 54.3175 48.8915 54.3731 49.0028 54.3731ZM56.204 59.4141H54.7464C54.5642 59.4141 54.5034 59.3078 54.5642 59.0952L56.9632 49.9699C57.034 49.7573 57.1858 49.651 57.4187 49.651H59.4381C59.6911 49.651 59.843 49.7573 59.8936 49.9699L62.2926 59.0952C62.3533 59.3078 62.2926 59.4141 62.1104 59.4141H60.6528C60.5414 59.4141 60.4655 59.3938 60.425 59.3533C60.3845 59.3027 60.3541 59.2167 60.3339 59.0952L59.9088 57.425H56.948L56.5228 59.0952C56.5026 59.2167 56.4672 59.3027 56.4165 59.3533C56.3761 59.3938 56.3052 59.4141 56.204 59.4141ZM58.4056 51.4883L57.3124 55.8763H59.5595L58.4663 51.4883H58.4056ZM73.9136 49.651H76.1607C76.3733 49.651 76.4796 49.7573 76.4796 49.9699V59.0952C76.4796 59.3078 76.3733 59.4141 76.1607 59.4141H74.9157C74.7031 59.4141 74.5968 59.3078 74.5968 59.0952V51.8982H74.5361L72.9874 56.9847C72.9266 57.1871 72.8001 57.2884 72.6078 57.2884H71.3324C71.14 57.2884 71.0135 57.1871 70.9528 56.9847L69.3737 51.883H69.3129V59.0952C69.3129 59.2167 69.2927 59.3027 69.2522 59.3533C69.2117 59.3938 69.1257 59.4141 68.9941 59.4141H67.749C67.5365 59.4141 67.4302 59.3078 67.4302 59.0952V49.9699C67.4302 49.7573 67.5365 49.651 67.749 49.651H70.0114C70.1531 49.651 70.2493 49.7219 70.2999 49.8636L71.9093 55.2234H72.0004L73.6251 49.8636C73.6554 49.7219 73.7516 49.651 73.9136 49.651ZM79.6922 59.4141H78.2346C78.0524 59.4141 77.9916 59.3078 78.0524 59.0952L80.4514 49.9699C80.5222 49.7573 80.6741 49.651 80.9069 49.651H82.9263C83.1794 49.651 83.3312 49.7573 83.3818 49.9699L85.7808 59.0952C85.8415 59.3078 85.7808 59.4141 85.5986 59.4141H84.141C84.0296 59.4141 83.9537 59.3938 83.9132 59.3533C83.8727 59.3027 83.8424 59.2167 83.8221 59.0952L83.397 57.425H80.4362L80.0111 59.0952C79.9908 59.2167 79.9554 59.3027 79.9048 59.3533C79.8643 59.3938 79.7934 59.4141 79.6922 59.4141ZM81.8938 51.4883L80.8006 55.8763H83.0478L81.9545 51.4883H81.8938ZM90.376 59.4141H89.1005C88.8778 59.4141 88.7665 59.3078 88.7665 59.0952V51.4883C88.7665 51.3769 88.7108 51.3212 88.5995 51.3212H86.8686C86.656 51.3212 86.5497 51.215 86.5497 51.0024V49.9699C86.5497 49.7573 86.656 49.651 86.8686 49.651H92.6079C92.8205 49.651 92.9268 49.7573 92.9268 49.9699V51.0024C92.9268 51.215 92.8205 51.3212 92.6079 51.3212H90.877C90.7555 51.3212 90.6948 51.3769 90.6948 51.4883V59.0952C90.6948 59.3078 90.5885 59.4141 90.376 59.4141ZM99.5978 59.4141H94.6328C94.4202 59.4141 94.3139 59.3078 94.3139 59.0952V49.9699C94.3139 49.7573 94.4202 49.651 94.6328 49.651H99.5978C99.8003 49.651 99.9015 49.7573 99.9015 49.9699V51.0024C99.9015 51.215 99.8003 51.3212 99.5978 51.3212H96.4245C96.303 51.3212 96.2423 51.3769 96.2423 51.4883V53.4621C96.2423 53.5735 96.303 53.6291 96.4245 53.6291H99.0208C99.2334 53.6291 99.3397 53.7354 99.3397 53.948V54.9805C99.3397 55.193 99.2334 55.2993 99.0208 55.2993H96.4245C96.303 55.2993 96.2423 55.355 96.2423 55.4663V57.5769C96.2423 57.6882 96.303 57.7439 96.4245 57.7439H99.5978C99.8003 57.7439 99.9015 57.8502 99.9015 58.0627V59.0952C99.9015 59.3078 99.8003 59.4141 99.5978 59.4141ZM103.417 59.4141H102.126C101.914 59.4141 101.807 59.3078 101.807 59.0952V49.9699C101.807 49.7573 101.914 49.651 102.126 49.651H105.74C106.529 49.651 107.147 49.8687 107.592 50.3039C108.038 50.7392 108.26 51.3516 108.26 52.1411V53.3255C108.26 54.4693 107.81 55.2285 106.909 55.603V55.6637L108.534 59.0497C108.625 59.2926 108.539 59.4141 108.275 59.4141H107.046C106.863 59.4141 106.732 59.3938 106.651 59.3533C106.57 59.3128 106.504 59.2268 106.453 59.0952L104.935 55.8156H103.918C103.796 55.8156 103.736 55.8712 103.736 55.9826V59.0952C103.736 59.3078 103.629 59.4141 103.417 59.4141ZM103.903 54.2668H105.391C105.714 54.2668 105.952 54.201 106.104 54.0695C106.256 53.9277 106.332 53.7051 106.332 53.4014V52.2171C106.332 51.9033 106.256 51.6755 106.104 51.5338C105.952 51.3921 105.714 51.3212 105.391 51.3212H103.903C103.791 51.3212 103.736 51.3769 103.736 51.4883V54.0998C103.736 54.2112 103.791 54.2668 103.903 54.2668ZM112.343 49.9699V59.0952C112.343 59.3078 112.236 59.4141 112.024 59.4141H110.733C110.521 59.4141 110.414 59.3078 110.414 59.0952V49.9699C110.414 49.7573 110.521 49.651 110.733 49.651H112.024C112.236 49.651 112.343 49.7573 112.343 49.9699ZM115.632 59.4141H114.174C113.992 59.4141 113.931 59.3078 113.992 59.0952L116.391 49.9699C116.462 49.7573 116.613 49.651 116.846 49.651H118.866C119.119 49.651 119.271 49.7573 119.321 49.9699L121.72 59.0952C121.781 59.3078 121.72 59.4141 121.538 59.4141H120.08C119.969 59.4141 119.893 59.3938 119.853 59.3533C119.812 59.3027 119.782 59.2167 119.761 59.0952L119.336 57.425H116.376L115.95 59.0952C115.93 59.2167 115.895 59.3027 115.844 59.3533C115.804 59.3938 115.733 59.4141 115.632 59.4141ZM117.833 51.4883L116.74 55.8763H118.987L117.894 51.4883H117.833ZM128.608 59.4141H123.613C123.4 59.4141 123.294 59.3078 123.294 59.0952V49.9699C123.294 49.7573 123.4 49.651 123.613 49.651H124.903C125.116 49.651 125.222 49.7573 125.222 49.9699V57.5617C125.222 57.673 125.283 57.7287 125.404 57.7287H128.608C128.81 57.7287 128.912 57.84 128.912 58.0627V59.0952C128.912 59.3078 128.81 59.4141 128.608 59.4141ZM130.099 56.924V56.6203C130.099 56.4077 130.206 56.3014 130.418 56.3014H131.709C131.921 56.3014 132.028 56.4077 132.028 56.6203V56.7418C132.028 57.1264 132.104 57.3896 132.255 57.5313C132.407 57.673 132.686 57.7439 133.09 57.7439H133.804C134.199 57.7439 134.472 57.668 134.624 57.5161C134.786 57.3643 134.867 57.0809 134.867 56.6658V56.4836C134.867 56.1901 134.745 55.9674 134.503 55.8156C134.27 55.6536 133.976 55.5574 133.622 55.5271C133.268 55.4967 132.883 55.441 132.468 55.3601C132.063 55.269 131.683 55.1576 131.329 55.026C130.975 54.8843 130.676 54.6161 130.433 54.2213C130.201 53.8164 130.084 53.3002 130.084 52.6726V52.1411C130.084 51.3516 130.307 50.7392 130.752 50.3039C131.198 49.8687 131.815 49.651 132.605 49.651H134.123C134.923 49.651 135.545 49.8687 135.991 50.3039C136.436 50.7392 136.659 51.3516 136.659 52.1411V52.4296C136.659 52.6422 136.552 52.7485 136.34 52.7485H135.049C134.837 52.7485 134.73 52.6422 134.73 52.4296V52.3385C134.73 51.9438 134.654 51.6755 134.503 51.5338C134.351 51.3921 134.072 51.3212 133.667 51.3212H133.075C132.66 51.3212 132.377 51.4022 132.225 51.5642C132.083 51.716 132.012 52.0197 132.012 52.4752V52.7637C132.012 53.2394 132.427 53.5127 133.257 53.5836C134.118 53.6544 134.882 53.8265 135.55 54.0998C135.904 54.2517 136.198 54.525 136.431 54.9197C136.674 55.3044 136.795 55.8004 136.795 56.4077V56.924C136.795 57.7135 136.573 58.3259 136.127 58.7612C135.682 59.1964 135.064 59.4141 134.275 59.4141H132.62C131.83 59.4141 131.213 59.1964 130.767 58.7612C130.322 58.3259 130.099 57.7135 130.099 56.924Z" fill="#133672"/>
</svg>
