<svg width="144" height="51" viewBox="0 0 144 51" fill="none" xmlns="http://www.w3.org/2000/svg">
<path d="M9.72559 18.785C9.72559 25.9075 15.4995 31.6814 22.6219 31.6814H35.2835V26.4954L22.6154 26.4955C22.6111 26.4955 22.6067 26.4955 22.6024 26.4954C18.353 26.4849 14.9115 23.0368 14.9115 18.785C14.9115 14.6057 18.2367 11.203 22.3858 11.0782C22.4643 11.0758 22.543 11.0746 22.6219 11.0746C22.6759 11.0746 22.7296 11.0752 22.7833 11.0763C26.9542 11.1619 30.3115 14.5594 30.3323 18.7459H35.5182C35.4971 11.6414 29.7314 5.88867 22.6219 5.88867C15.4995 5.88867 9.72559 11.6626 9.72559 18.785Z" fill="white"/>
<path d="M25.7113 17.2715H34.4816C35.0542 17.2715 35.5183 17.7356 35.5183 18.3082V21.6255H26.748C26.1754 21.6255 25.7113 21.1614 25.7113 20.5889V17.2715Z" fill="white"/>
<path d="M35.5083 18.3176L34.4819 17.2812H35.4253C35.4253 17.2812 35.4668 17.5815 35.4772 17.7163C35.4836 17.8096 35.4928 17.9135 35.4979 18.0169C35.501 18.0791 35.5083 18.245 35.5083 18.3176Z" fill="white"/>
<path d="M35.4772 17.7163C35.4668 17.5815 35.4253 17.2812 35.4253 17.2812H34.4819L35.5083 18.3176C35.5083 18.245 35.501 18.0791 35.4979 18.0169M35.4772 17.7163C35.4836 17.8096 35.4928 17.9135 35.4979 18.0169M35.4772 17.7163L35.4979 18.0169" stroke="black" stroke-width="0.0241053"/>
<path d="M47.6043 32H46.1254C43.8247 32 42.0768 31.3725 40.8817 30.1176C39.7164 28.8627 39.1338 27.0551 39.1338 24.6947V10.084C39.1338 9.45658 39.4475 9.14285 40.0749 9.14285H43.8845C44.5119 9.14285 44.8256 9.45658 44.8256 10.084V24.4258C44.8256 25.3819 45.0198 26.0691 45.4083 26.4874C45.8266 26.8758 46.4988 27.07 47.4251 27.07H49.0833C51.145 27.07 52.1758 25.9346 52.1758 23.6639V10.084C52.1758 9.45658 52.4895 9.14285 53.1169 9.14285H56.8817C57.539 9.14285 57.8676 9.45658 57.8676 10.084V31.0588C57.8676 31.6863 57.539 32 56.8817 32H53.1169C52.4895 32 52.1758 31.6863 52.1758 31.0588V29.5798H51.9965C51.6678 30.3866 51.0852 30.9991 50.2486 31.4174C49.412 31.8058 48.5306 32 47.6043 32ZM67.5679 32H63.7584C63.131 32 62.8172 31.6863 62.8172 31.0588V10.084C62.8172 9.45658 63.131 9.14285 63.7584 9.14285H67.5679C68.1954 9.14285 68.5091 9.45658 68.5091 10.084V11.563H68.6884C69.0469 10.8459 69.6445 10.2633 70.4811 9.81512C71.3476 9.36694 72.3336 9.14285 73.4391 9.14285H74.694C77.2934 9.14285 79.1608 10.099 80.2962 12.0112C81.3121 10.099 83.06 9.14285 85.5399 9.14285H86.8396C89.1403 9.14285 90.8733 9.77031 92.0385 11.0252C93.2337 12.2801 93.8312 14.0878 93.8312 16.4482V31.0588C93.8312 31.6863 93.5175 32 92.8901 32H89.0805C88.4531 32 88.1394 31.6863 88.1394 31.0588V16.7171C88.1394 15.761 87.9451 15.0887 87.5567 14.7003C87.1683 14.282 86.496 14.0728 85.5399 14.0728H84.4195C82.3578 14.0728 81.327 15.2232 81.327 17.5238V31.0588C81.327 31.6863 80.9984 32 80.341 32H76.5763C75.9489 32 75.6352 31.6863 75.6352 31.0588V16.7171C75.6352 15.761 75.426 15.0887 75.0077 14.7003C74.6193 14.282 73.947 14.0728 72.9909 14.0728H71.6015C69.5399 14.0728 68.5091 15.2082 68.5091 17.479V31.0588C68.5091 31.6863 68.1954 32 67.5679 32ZM106.598 32H105.522C103.162 32 101.339 31.3725 100.054 30.1176C98.7695 28.8627 98.1271 27.0551 98.1271 24.6947V16.4482C98.1271 14.0878 98.7695 12.2801 100.054 11.0252C101.339 9.77031 103.162 9.14285 105.522 9.14285H115.875C116.532 9.14285 116.861 9.45658 116.861 10.084V31.0588C116.861 31.6863 116.532 32 115.875 32H112.11C111.483 32 111.169 31.6863 111.169 31.0588V29.5798H110.99C110.661 30.3866 110.079 30.9991 109.242 31.4174C108.405 31.8058 107.524 32 106.598 32ZM111.169 23.6639V14.5658C111.169 14.2372 110.99 14.0728 110.631 14.0728H106.418C105.462 14.0728 104.79 14.282 104.402 14.7003C104.013 15.0887 103.819 15.761 103.819 16.7171V24.4258C103.819 25.3819 104.013 26.0691 104.402 26.4874C104.79 26.8758 105.462 27.07 106.418 27.07H108.077C110.138 27.07 111.169 25.9346 111.169 23.6639ZM122.265 14.0728H120.472C120.114 14.0728 119.86 14.0131 119.71 13.8936C119.591 13.774 119.531 13.535 119.531 13.1765V10.084C119.531 9.45658 119.845 9.14285 120.472 9.14285H122.265C122.594 9.14285 122.758 8.97852 122.758 8.64986V4.39215C122.758 3.7647 123.087 3.45098 123.744 3.45098H127.509C128.136 3.45098 128.45 3.7647 128.45 4.39215V8.64986C128.45 8.97852 128.629 9.14285 128.988 9.14285H132.484C133.111 9.14285 133.425 9.45658 133.425 10.084V13.1765C133.425 13.5051 133.35 13.7442 133.201 13.8936C133.081 14.0131 132.842 14.0728 132.484 14.0728H128.988C128.629 14.0728 128.45 14.2372 128.45 14.5658V24.4706C128.45 25.3968 128.659 26.0691 129.077 26.4874C129.496 26.8758 130.183 27.07 131.139 27.07H132.932C133.559 27.07 133.873 27.3838 133.873 28.0112V31.1036C133.873 31.4323 133.798 31.6713 133.649 31.8207C133.529 31.9402 133.29 32 132.932 32H130.198C127.837 32 126 31.3725 124.685 30.1176C123.4 28.8627 122.758 27.07 122.758 24.7395V14.5658C122.758 14.2372 122.594 14.0728 122.265 14.0728Z" fill="white"/>
<path d="M18.071 46.5273H13.308C13.1041 46.5273 13.0021 46.4254 13.0021 46.2215V37.4674C13.0021 37.2635 13.1041 37.1615 13.308 37.1615H18.071C18.2653 37.1615 18.3624 37.2635 18.3624 37.4674V38.4579C18.3624 38.6618 18.2653 38.7638 18.071 38.7638H15.0268C14.9103 38.7638 14.852 38.8172 14.852 38.924V40.8175C14.852 40.9244 14.9103 40.9778 15.0268 40.9778H17.5175C17.7215 40.9778 17.8234 41.0797 17.8234 41.2836V42.2741C17.8234 42.478 17.7215 42.58 17.5175 42.58H15.0268C14.9103 42.58 14.852 42.6334 14.852 42.7402V44.7649C14.852 44.8717 14.9103 44.9251 15.0268 44.9251H18.071C18.2653 44.9251 18.3624 45.0271 18.3624 45.231V46.2215C18.3624 46.4254 18.2653 46.5273 18.071 46.5273ZM24.9828 37.1615H26.2063C26.4199 37.1615 26.5267 37.2586 26.5267 37.4528V44.1531C26.5267 44.9105 26.3131 45.498 25.8858 45.9156C25.4683 46.3234 24.8808 46.5273 24.1234 46.5273H22.5211C21.754 46.5273 21.1617 46.3234 20.7441 45.9156C20.3266 45.5077 20.1178 44.9202 20.1178 44.1531V37.4674C20.1178 37.2635 20.2197 37.1615 20.4237 37.1615H21.6618C21.8657 37.1615 21.9676 37.2635 21.9676 37.4674V44.0657C21.9676 44.3765 22.0308 44.5998 22.157 44.7357C22.2929 44.862 22.5114 44.9251 22.8125 44.9251H23.8175C24.1282 44.9251 24.3467 44.862 24.473 44.7357C24.6089 44.5998 24.6769 44.3765 24.6769 44.0657V37.4674C24.6769 37.2635 24.7788 37.1615 24.9828 37.1615ZM30.1037 46.5273H28.8656C28.6617 46.5273 28.5597 46.4254 28.5597 46.2215V37.4674C28.5597 37.2635 28.6617 37.1615 28.8656 37.1615H32.3322C33.0897 37.1615 33.682 37.3703 34.1093 37.7878C34.5365 38.2054 34.7502 38.7929 34.7502 39.5503V40.6864C34.7502 41.7837 34.3181 42.512 33.4538 42.8713V42.9296L35.0124 46.1778C35.0998 46.4108 35.0172 46.5273 34.7647 46.5273H33.5849C33.4101 46.5273 33.2839 46.5079 33.2062 46.4691C33.1285 46.4302 33.0654 46.3477 33.0168 46.2215L31.5603 43.0752H30.5843C30.4678 43.0752 30.4096 43.1287 30.4096 43.2355V46.2215C30.4096 46.4254 30.3076 46.5273 30.1037 46.5273ZM30.5698 41.5895H31.9972C32.308 41.5895 32.5362 41.5264 32.6818 41.4002C32.8275 41.2642 32.9003 41.0506 32.9003 40.7593V39.6231C32.9003 39.3221 32.8275 39.1036 32.6818 38.9677C32.5362 38.8317 32.308 38.7638 31.9972 38.7638H30.5698C30.463 38.7638 30.4096 38.8172 30.4096 38.924V41.4293C30.4096 41.5361 30.463 41.5895 30.5698 41.5895ZM39.2929 44.9251H40.3271C40.6378 44.9251 40.8563 44.862 40.9825 44.7357C41.1185 44.5998 41.1864 44.3765 41.1864 44.0657V39.6231C41.1864 39.3124 41.1185 39.0939 40.9825 38.9677C40.8563 38.8317 40.6378 38.7638 40.3271 38.7638H39.2929C38.9822 38.7638 38.7637 38.8317 38.6374 38.9677C38.5112 39.0939 38.4481 39.3124 38.4481 39.6231V44.0657C38.4481 44.3765 38.5112 44.5998 38.6374 44.7357C38.7637 44.862 38.9822 44.9251 39.2929 44.9251ZM40.6329 46.5273H39.0016C38.2344 46.5273 37.6421 46.3234 37.2245 45.9156C36.807 45.5077 36.5982 44.9202 36.5982 44.1531V39.5357C36.5982 38.7686 36.807 38.1811 37.2245 37.7733C37.6421 37.3654 38.2344 37.1615 39.0016 37.1615H40.6329C41.4001 37.1615 41.9924 37.3654 42.41 37.7733C42.8275 38.1811 43.0363 38.7686 43.0363 39.5357V44.1531C43.0363 44.9202 42.8275 45.5077 42.41 45.9156C41.9924 46.3234 41.4001 46.5273 40.6329 46.5273ZM46.5431 46.5273H45.3051C45.1011 46.5273 44.9992 46.4254 44.9992 46.2215V37.4674C44.9992 37.2635 45.1011 37.1615 45.3051 37.1615H48.8591C49.6165 37.1615 50.204 37.3703 50.6216 37.7878C51.0391 38.1957 51.2479 38.7783 51.2479 39.5357V40.9341C51.2479 41.6915 51.0391 42.279 50.6216 42.6965C50.204 43.1044 49.6165 43.3083 48.8591 43.3083H47.0238C46.9073 43.3083 46.849 43.3617 46.849 43.4685V46.2215C46.849 46.4254 46.7471 46.5273 46.5431 46.5273ZM47.0093 41.6915H48.5532C48.864 41.6915 49.0825 41.6284 49.2087 41.5021C49.3349 41.3662 49.398 41.1477 49.398 40.8467V39.6231C49.398 39.3124 49.3349 39.0939 49.2087 38.9677C49.0825 38.8317 48.864 38.7638 48.5532 38.7638H47.0093C46.9024 38.7638 46.849 38.8172 46.849 38.924V41.5313C46.849 41.6381 46.9024 41.6915 47.0093 41.6915ZM53.9174 46.5273H52.5191C52.3443 46.5273 52.2861 46.4254 52.3443 46.2215L54.6457 37.4674C54.7137 37.2635 54.8594 37.1615 55.0827 37.1615H57.02C57.2627 37.1615 57.4084 37.2635 57.4569 37.4674L59.7583 46.2215C59.8166 46.4254 59.7583 46.5273 59.5835 46.5273H58.1852C58.0784 46.5273 58.0056 46.5079 57.9667 46.4691C57.9279 46.4205 57.8988 46.338 57.8793 46.2215L57.4715 44.6192H54.6312L54.2233 46.2215C54.2039 46.338 54.1699 46.4205 54.1214 46.4691C54.0825 46.5079 54.0145 46.5273 53.9174 46.5273ZM56.0295 38.924L54.9807 43.1335H57.1365L56.0877 38.924H56.0295ZM70.9065 37.1615H73.0623C73.2662 37.1615 73.3682 37.2635 73.3682 37.4674V46.2215C73.3682 46.4254 73.2662 46.5273 73.0623 46.5273H71.8679C71.664 46.5273 71.562 46.4254 71.562 46.2215V39.3173H71.5037L70.018 44.1968C69.9598 44.391 69.8384 44.4881 69.6539 44.4881H68.4303C68.2458 44.4881 68.1245 44.391 68.0662 44.1968L66.5514 39.3027H66.4931V46.2215C66.4931 46.338 66.4737 46.4205 66.4348 46.4691C66.396 46.5079 66.3134 46.5273 66.1872 46.5273H64.9928C64.7889 46.5273 64.6869 46.4254 64.6869 46.2215V37.4674C64.6869 37.2635 64.7889 37.1615 64.9928 37.1615H67.1631C67.2991 37.1615 67.3913 37.2295 67.4399 37.3654L68.9838 42.5072H69.0712L70.6298 37.3654C70.6589 37.2295 70.7512 37.1615 70.9065 37.1615ZM76.4501 46.5273H75.0518C74.877 46.5273 74.8187 46.4254 74.877 46.2215L77.1784 37.4674C77.2464 37.2635 77.392 37.1615 77.6154 37.1615H79.5526C79.7954 37.1615 79.941 37.2635 79.9896 37.4674L82.291 46.2215C82.3493 46.4254 82.291 46.5273 82.1162 46.5273H80.7179C80.6111 46.5273 80.5382 46.5079 80.4994 46.4691C80.4606 46.4205 80.4314 46.338 80.412 46.2215L80.0042 44.6192H77.1638L76.756 46.2215C76.7366 46.338 76.7026 46.4205 76.654 46.4691C76.6152 46.5079 76.5472 46.5273 76.4501 46.5273ZM78.5621 38.924L77.5134 43.1335H79.6691L78.6204 38.924H78.5621ZM86.6992 46.5273H85.4757C85.262 46.5273 85.1552 46.4254 85.1552 46.2215V38.924C85.1552 38.8172 85.1018 38.7638 84.995 38.7638H83.3345C83.1306 38.7638 83.0286 38.6618 83.0286 38.4579V37.4674C83.0286 37.2635 83.1306 37.1615 83.3345 37.1615H88.8404C89.0443 37.1615 89.1463 37.2635 89.1463 37.4674V38.4579C89.1463 38.6618 89.0443 38.7638 88.8404 38.7638H87.1799C87.0633 38.7638 87.0051 38.8172 87.0051 38.924V46.2215C87.0051 46.4254 86.9031 46.5273 86.6992 46.5273ZM95.5459 46.5273H90.7829C90.5789 46.5273 90.477 46.4254 90.477 46.2215V37.4674C90.477 37.2635 90.5789 37.1615 90.7829 37.1615H95.5459C95.7401 37.1615 95.8372 37.2635 95.8372 37.4674V38.4579C95.8372 38.6618 95.7401 38.7638 95.5459 38.7638H92.5016C92.3851 38.7638 92.3268 38.8172 92.3268 38.924V40.8175C92.3268 40.9244 92.3851 40.9778 92.5016 40.9778H94.9924C95.1963 40.9778 95.2983 41.0797 95.2983 41.2836V42.2741C95.2983 42.478 95.1963 42.58 94.9924 42.58H92.5016C92.3851 42.58 92.3268 42.6334 92.3268 42.7402V44.7649C92.3268 44.8717 92.3851 44.9251 92.5016 44.9251H95.5459C95.7401 44.9251 95.8372 45.0271 95.8372 45.231V46.2215C95.8372 46.4254 95.7401 46.5273 95.5459 46.5273ZM99.2094 46.5273H97.9713C97.7674 46.5273 97.6654 46.4254 97.6654 46.2215V37.4674C97.6654 37.2635 97.7674 37.1615 97.9713 37.1615H101.438C102.195 37.1615 102.788 37.3703 103.215 37.7878C103.642 38.2054 103.856 38.7929 103.856 39.5503V40.6864C103.856 41.7837 103.424 42.512 102.56 42.8713V42.9296L104.118 46.1778C104.205 46.4108 104.123 46.5273 103.87 46.5273H102.691C102.516 46.5273 102.39 46.5079 102.312 46.4691C102.234 46.4302 102.171 46.3477 102.123 46.2215L100.666 43.0752H99.6901C99.5736 43.0752 99.5153 43.1287 99.5153 43.2355V46.2215C99.5153 46.4254 99.4133 46.5273 99.2094 46.5273ZM99.6755 41.5895H101.103C101.414 41.5895 101.642 41.5264 101.788 41.4002C101.933 41.2642 102.006 41.0506 102.006 40.7593V39.6231C102.006 39.3221 101.933 39.1036 101.788 38.9677C101.642 38.8317 101.414 38.7638 101.103 38.7638H99.6755C99.5687 38.7638 99.5153 38.8172 99.5153 38.924V41.4293C99.5153 41.5361 99.5687 41.5895 99.6755 41.5895ZM107.772 37.4674V46.2215C107.772 46.4254 107.67 46.5273 107.466 46.5273H106.228C106.024 46.5273 105.922 46.4254 105.922 46.2215V37.4674C105.922 37.2635 106.024 37.1615 106.228 37.1615H107.466C107.67 37.1615 107.772 37.2635 107.772 37.4674ZM110.927 46.5273H109.529C109.354 46.5273 109.296 46.4254 109.354 46.2215L111.656 37.4674C111.724 37.2635 111.869 37.1615 112.093 37.1615H114.03C114.273 37.1615 114.418 37.2635 114.467 37.4674L116.768 46.2215C116.826 46.4254 116.768 46.5273 116.593 46.5273H115.195C115.088 46.5273 115.015 46.5079 114.977 46.4691C114.938 46.4205 114.909 46.338 114.889 46.2215L114.481 44.6192H111.641L111.233 46.2215C111.214 46.338 111.18 46.4205 111.131 46.4691C111.092 46.5079 111.024 46.5273 110.927 46.5273ZM113.039 38.924L111.991 43.1335H114.146L113.098 38.924H113.039ZM123.376 46.5273H118.584C118.38 46.5273 118.278 46.4254 118.278 46.2215V37.4674C118.278 37.2635 118.38 37.1615 118.584 37.1615H119.822C120.026 37.1615 120.128 37.2635 120.128 37.4674V44.7503C120.128 44.8571 120.186 44.9105 120.302 44.9105H123.376C123.57 44.9105 123.667 45.0174 123.667 45.231V46.2215C123.667 46.4254 123.57 46.5273 123.376 46.5273ZM124.806 44.1385V43.8472C124.806 43.6433 124.908 43.5413 125.112 43.5413H126.35C126.554 43.5413 126.656 43.6433 126.656 43.8472V43.9638C126.656 44.3328 126.729 44.5852 126.875 44.7212C127.02 44.8571 127.288 44.9251 127.676 44.9251H128.361C128.739 44.9251 129.001 44.8523 129.147 44.7066C129.302 44.561 129.38 44.2891 129.38 43.8909V43.7161C129.38 43.4345 129.264 43.2209 129.031 43.0752C128.807 42.9199 128.526 42.8276 128.186 42.7985C127.846 42.7694 127.477 42.716 127.079 42.6383C126.69 42.5509 126.326 42.4441 125.986 42.3178C125.646 42.1819 125.36 41.9245 125.127 41.5458C124.904 41.1574 124.792 40.6622 124.792 40.0601V39.5503C124.792 38.7929 125.006 38.2054 125.433 37.7878C125.86 37.3703 126.452 37.1615 127.21 37.1615H128.666C129.434 37.1615 130.031 37.3703 130.458 37.7878C130.885 38.2054 131.099 38.7929 131.099 39.5503V39.8271C131.099 40.031 130.997 40.1329 130.793 40.1329H129.555C129.351 40.1329 129.249 40.031 129.249 39.8271V39.7397C129.249 39.361 129.176 39.1036 129.031 38.9677C128.885 38.8317 128.618 38.7638 128.229 38.7638H127.661C127.263 38.7638 126.991 38.8414 126.846 38.9968C126.71 39.1425 126.642 39.4338 126.642 39.8708V40.1475C126.642 40.6039 127.04 40.8661 127.836 40.9341C128.662 41.002 129.395 41.1671 130.036 41.4293C130.375 41.575 130.657 41.8371 130.88 42.2159C131.113 42.5849 131.23 43.0607 131.23 43.6433V44.1385C131.23 44.896 131.016 45.4835 130.589 45.901C130.162 46.3186 129.569 46.5273 128.812 46.5273H127.224C126.467 46.5273 125.875 46.3186 125.447 45.901C125.02 45.4835 124.806 44.896 124.806 44.1385Z" fill="white"/>
</svg>
