<svg width="25" height="25" viewBox="0 0 25 25" fill="none" xmlns="http://www.w3.org/2000/svg">
<g id="Icon / map">
<g id="icon">
<path d="M12.295 14.1431C14.501 14.1431 16.295 12.3491 16.295 10.1431C16.295 7.93707 14.501 6.14307 12.295 6.14307C10.089 6.14307 8.29498 7.93707 8.29498 10.1431C8.29498 12.3491 10.089 14.1431 12.295 14.1431ZM12.295 8.14307C13.398 8.14307 14.295 9.04007 14.295 10.1431C14.295 11.2461 13.398 12.1431 12.295 12.1431C11.192 12.1431 10.295 11.2461 10.295 10.1431C10.295 9.04007 11.192 8.14307 12.295 8.14307ZM11.715 21.9571C11.8843 22.0779 12.087 22.1429 12.295 22.1429C12.503 22.1429 12.7058 22.0779 12.875 21.9571C13.179 21.7421 20.324 16.5831 20.295 10.1431C20.295 5.73207 16.706 2.14307 12.295 2.14307C7.88401 2.14307 4.29501 5.73207 4.29501 10.1381C4.26601 16.5831 11.411 21.7421 11.715 21.9571ZM12.295 4.14307C15.604 4.14307 18.295 6.83407 18.295 10.1481C18.316 14.5861 13.907 18.5711 12.295 19.8781C10.684 18.5701 6.27401 14.5841 6.29501 10.1431C6.29501 6.83407 8.98601 4.14307 12.295 4.14307Z" fill="black"/>
<path d="M12.295 14.1431C14.501 14.1431 16.295 12.3491 16.295 10.1431C16.295 7.93707 14.501 6.14307 12.295 6.14307C10.089 6.14307 8.29498 7.93707 8.29498 10.1431C8.29498 12.3491 10.089 14.1431 12.295 14.1431ZM12.295 8.14307C13.398 8.14307 14.295 9.04007 14.295 10.1431C14.295 11.2461 13.398 12.1431 12.295 12.1431C11.192 12.1431 10.295 11.2461 10.295 10.1431C10.295 9.04007 11.192 8.14307 12.295 8.14307ZM11.715 21.9571C11.8843 22.0779 12.087 22.1429 12.295 22.1429C12.503 22.1429 12.7058 22.0779 12.875 21.9571C13.179 21.7421 20.324 16.5831 20.295 10.1431C20.295 5.73207 16.706 2.14307 12.295 2.14307C7.88401 2.14307 4.29501 5.73207 4.29501 10.1381C4.26601 16.5831 11.411 21.7421 11.715 21.9571ZM12.295 4.14307C15.604 4.14307 18.295 6.83407 18.295 10.1481C18.316 14.5861 13.907 18.5711 12.295 19.8781C10.684 18.5701 6.27401 14.5841 6.29501 10.1431C6.29501 6.83407 8.98601 4.14307 12.295 4.14307Z" fill="black"/>
</g>
</g>
</svg>
