<svg width="25" height="25" viewBox="0 0 25 25" fill="none" xmlns="http://www.w3.org/2000/svg">
<g id="Icon / phone">
<path id="icon" d="M18.0023 12.436C17.9095 12.3431 17.7993 12.2693 17.6779 12.219C17.5566 12.1687 17.4266 12.1428 17.2953 12.1428C17.1639 12.1428 17.0339 12.1687 16.9126 12.219C16.7912 12.2693 16.681 12.3431 16.5883 12.436L14.9943 14.03C14.2553 13.81 12.8763 13.31 12.0023 12.436C11.1283 11.562 10.6283 10.183 10.4083 9.44402L12.0023 7.85002C12.0952 7.75724 12.1689 7.64703 12.2192 7.52572C12.2696 7.4044 12.2955 7.27436 12.2955 7.14302C12.2955 7.01169 12.2696 6.88165 12.2192 6.76033C12.1689 6.63902 12.0952 6.52881 12.0023 6.43602L8.00226 2.43602C7.90947 2.34308 7.79926 2.26934 7.67795 2.21903C7.55663 2.16872 7.42659 2.14282 7.29526 2.14282C7.16392 2.14282 7.03388 2.16872 6.91256 2.21903C6.79125 2.26934 6.68104 2.34308 6.58826 2.43602L3.87626 5.14802C3.49626 5.52802 3.28226 6.05002 3.29026 6.58302C3.31326 8.00702 3.69026 12.953 7.58826 16.851C11.4863 20.749 16.4323 21.125 17.8573 21.149H17.8853C18.4133 21.149 18.9123 20.941 19.2903 20.563L22.0023 17.851C22.0952 17.7582 22.1689 17.648 22.2192 17.5267C22.2696 17.4054 22.2955 17.2754 22.2955 17.144C22.2955 17.0127 22.2696 16.8826 22.2192 16.7613C22.1689 16.64 22.0952 16.5298 22.0023 16.437L18.0023 12.436ZM17.8753 19.148C16.6273 19.127 12.3573 18.792 9.00226 15.436C5.63626 12.07 5.31026 7.78502 5.29026 6.56202L7.29526 4.55702L9.88126 7.14302L8.58826 8.43602C8.47072 8.55347 8.3843 8.69836 8.33681 8.85759C8.28932 9.01682 8.28225 9.18538 8.31626 9.34802C8.34026 9.46302 8.92726 12.19 10.5873 13.85C12.2473 15.51 14.9743 16.097 15.0893 16.121C15.2518 16.156 15.4205 16.1495 15.5799 16.1021C15.7393 16.0548 15.8842 15.9681 16.0013 15.85L17.2953 14.557L19.8813 17.143L17.8753 19.148Z" fill="black"/>
</g>
</svg>
